M48
;Layer_Color=9474304
;FILE_FORMAT=2:5
INCH,LZ
;TYPE=PLATED
T1F00S00C0.01181
T2F00S00C0.02362
T3F00S00C0.02756
T4F00S00C0.03000
T5F00S00C0.03425
T6F00S00C0.03500
T7F00S00C0.04000
T8F00S00C0.04200
T9F00S00C0.04724
T10F00S00C0.05000
%
T01
X0470472Y0135827
X0513779Y0096457
X0401575Y009252
X0287402Y0061024
X0255906
X0244094Y0086614
X0238189Y0100394
X0255906
X0251969Y0161417
X0263779Y015748
X0222441
X0194882Y0155512
X0204724Y0145669
Y013189
X0194882Y0127953
X0197441Y0116142
X0190945Y0066929
Y0061024
Y005315
X0167323Y0072835
X0090551Y0088583
X0106299Y0305118
X0043307
X0165354Y0267717
X0188976Y0277559
Y0244094
X0230315Y0218504
X027559Y021063
X0279528Y0214567
X0263779Y0271654
X0161417Y0187008
X0379921Y0246063
X0423228Y0253937
X0437008
X0448819
X0399606Y0295276
X0482283Y0320866
X0507874Y0316929
X0547244Y0326772
X0561024
X0566929Y0224409
X0561024Y0192913
X0533465
X0509842Y0200787
X0507874Y0224409
X0505905Y0244094
X0482283Y0228346
X0480315Y021063
X0484252Y0379921
X0511811Y0374016
X0427165Y0358268
X0314961Y0360236
Y0332677
X0326772Y0334646
X0305118Y034252
X0299213Y0348425
Y0366142
X0259842Y0356299
X0230315Y0362205
X0232283Y0383858
X0236221Y0344488
X0242126Y0336614
X0222441Y0340551
X0309055Y0466535
T02
X0494095Y016126
X0499094Y016626
X0494095Y017126
X0547244Y0173228
Y0163228
X0552244Y0168228
X0272126Y0172756
X0262126
X0252126
X0242126
X0232126
X0222126
X0212126
Y0202756
X0222126
X0232126
X0242126
X0252126
X0262126
X0272126
X0179134Y0302992
X0184134Y0307992
X0179134Y0312992
X0494095Y0305118
Y0295118
X0499094Y0300118
X0555118Y0303307
Y0293307
X0560118Y0298307
T03
X0052835Y0208819
X0072835Y0198819
X0102835Y0208819
T04
X040748Y0288618
Y0296618
Y0305118
X0444882Y0354205
Y0362205
Y0370705
X0322835Y0372673
Y0364173
Y0356173
X0236221Y0353579
Y0361579
Y0370079
T05
X0059055Y0238189
X0094488
Y0277559
X0059055
T06
X0523622Y0100787
Y0153543
X0452756Y0146063
X0153543Y016911
Y011811
Y0080709
Y0029709
X0072835Y0110236
Y0163386
X0155512Y0202756
Y0253756
X0456693Y0254331
Y0307087
X0452756Y0198819
X0523622Y0244488
Y0297244
X0411417Y0397638
X0370079Y0395669
Y0448819
X0411417Y0450787
X0322835Y0454724
Y0401575
X0255906Y0399606
Y0452756
X0179134Y0435039
Y0420039
X0153543Y0405512
Y0354512
T07
X0216535Y0420039
Y0435039
T08
X0354331Y0108268
X0399606
X0283465Y0248031
X0283665Y0330031
X0363973Y0250677
X0354531Y0190268
X0399806
X0364173Y0332677
X0208819Y0478346
X0198819
X0188819Y0478847
T09
X033252Y0033465
X034252
X0027559Y0253937
Y0263937
X0622047Y0224567
Y0214567
T10
X0070866Y0064961
Y0078461
M30
