G04*
G04 #@! TF.GenerationSoftware,Altium Limited,Altium Designer,20.0.13 (296)*
G04*
G04 Layer_Color=8388736*
%FSLAX25Y25*%
%MOIN*%
G70*
G01*
G75*
%ADD17R,0.02965X0.03359*%
G04:AMPARAMS|DCode=18|XSize=33.59mil|YSize=29.65mil|CornerRadius=9.41mil|HoleSize=0mil|Usage=FLASHONLY|Rotation=90.000|XOffset=0mil|YOffset=0mil|HoleType=Round|Shape=RoundedRectangle|*
%AMROUNDEDRECTD18*
21,1,0.03359,0.01083,0,0,90.0*
21,1,0.01476,0.02965,0,0,90.0*
1,1,0.01883,0.00541,0.00738*
1,1,0.01883,0.00541,-0.00738*
1,1,0.01883,-0.00541,-0.00738*
1,1,0.01883,-0.00541,0.00738*
%
%ADD18ROUNDEDRECTD18*%
%ADD19R,0.02769X0.03950*%
%ADD20O,0.02769X0.03950*%
%ADD21O,0.05524X0.07800*%
%ADD22R,0.05524X0.07800*%
%ADD23O,0.08674X0.07099*%
%ADD24R,0.08674X0.07099*%
%ADD25O,0.07099X0.08674*%
%ADD26R,0.07099X0.08674*%
%ADD27R,0.08800X0.05524*%
%ADD28O,0.08800X0.05524*%
%ADD29C,0.10642*%
%ADD30C,0.05524*%
%ADD31O,0.05524X0.10642*%
%ADD32R,0.05524X0.10642*%
%ADD33O,0.10642X0.05524*%
%ADD34R,0.10642X0.05524*%
%ADD35O,0.04300X0.08300*%
%ADD36C,0.12611*%
%ADD37C,0.03162*%
D17*
X190313Y82294D02*
D03*
D18*
X192913Y82194D02*
D03*
X195513D02*
D03*
X198013D02*
D03*
X190213Y100394D02*
D03*
X192913D02*
D03*
X195413D02*
D03*
X198113D02*
D03*
D19*
X269328Y71894D02*
D03*
D20*
X274428Y71594D02*
D03*
X279428D02*
D03*
X284328D02*
D03*
X289328D02*
D03*
X294528D02*
D03*
X299428D02*
D03*
X269328Y100494D02*
D03*
X274428D02*
D03*
X279528Y100394D02*
D03*
X284428D02*
D03*
X289328Y100494D02*
D03*
X294428D02*
D03*
X299428Y100394D02*
D03*
D21*
X444882Y354205D02*
D03*
Y362205D02*
D03*
X236221Y353579D02*
D03*
Y361579D02*
D03*
X407480Y288618D02*
D03*
Y296618D02*
D03*
X322835Y356173D02*
D03*
Y364173D02*
D03*
D22*
X444882Y370705D02*
D03*
X236221Y370079D02*
D03*
X407480Y305118D02*
D03*
X322835Y372673D02*
D03*
D23*
X27559Y253937D02*
D03*
X622047Y214567D02*
D03*
D24*
X27559Y263937D02*
D03*
X622047Y224567D02*
D03*
D25*
X332520Y33465D02*
D03*
D26*
X342520D02*
D03*
D27*
X188819Y478847D02*
D03*
D28*
X198819Y478346D02*
D03*
X208819D02*
D03*
D29*
X94488Y277559D02*
D03*
Y238189D02*
D03*
X59055D02*
D03*
Y277559D02*
D03*
X70866Y78461D02*
D03*
Y64961D02*
D03*
X456693Y254331D02*
D03*
Y307087D02*
D03*
X523622Y244488D02*
D03*
Y297244D02*
D03*
X452756Y146063D02*
D03*
Y198819D02*
D03*
X523622Y100787D02*
D03*
Y153543D02*
D03*
X411417Y397638D02*
D03*
Y450787D02*
D03*
X255906Y399606D02*
D03*
Y452756D02*
D03*
X370079Y395669D02*
D03*
Y448819D02*
D03*
X322835Y401575D02*
D03*
Y454724D02*
D03*
X72835Y110236D02*
D03*
Y163386D02*
D03*
D30*
X179134Y435039D02*
D03*
Y420039D02*
D03*
X216535Y435039D02*
D03*
Y420039D02*
D03*
D31*
X272126Y202756D02*
D03*
X262126D02*
D03*
X252126D02*
D03*
X242126D02*
D03*
X232126D02*
D03*
X222126D02*
D03*
X212126D02*
D03*
X272126Y172756D02*
D03*
X262126D02*
D03*
X252126D02*
D03*
X242126D02*
D03*
X232126D02*
D03*
X222126D02*
D03*
D32*
X212126D02*
D03*
D33*
X102835Y208819D02*
D03*
X72835Y198819D02*
D03*
D34*
X52835Y208819D02*
D03*
D35*
X494095Y295118D02*
D03*
X499094Y300118D02*
D03*
X494095Y305118D02*
D03*
X555118Y293307D02*
D03*
X560118Y298307D02*
D03*
X555118Y303307D02*
D03*
X179134Y302992D02*
D03*
X184134Y307992D02*
D03*
X179134Y312992D02*
D03*
X494095Y161260D02*
D03*
X499094Y166260D02*
D03*
X494095Y171260D02*
D03*
X547244Y163228D02*
D03*
X552244Y168228D02*
D03*
X547244Y173228D02*
D03*
D36*
X153543Y405512D02*
D03*
Y354512D02*
D03*
X155512Y253756D02*
D03*
Y202756D02*
D03*
X153543Y169110D02*
D03*
Y118110D02*
D03*
Y80709D02*
D03*
Y29709D02*
D03*
X399806Y190268D02*
D03*
X399606Y108268D02*
D03*
X283465Y248031D02*
D03*
X283665Y330031D02*
D03*
X364173Y332677D02*
D03*
X363973Y250677D02*
D03*
X354531Y190268D02*
D03*
X354331Y108268D02*
D03*
D37*
X232283Y383858D02*
D03*
X305118Y342520D02*
D03*
X326772Y334646D02*
D03*
X379921Y246063D02*
D03*
X423228Y253937D02*
D03*
X437008D02*
D03*
X448819D02*
D03*
X314961Y360236D02*
D03*
Y332677D02*
D03*
X511811Y374016D02*
D03*
X484252Y379921D02*
D03*
X399606Y295276D02*
D03*
X427165Y358268D02*
D03*
X401575Y92520D02*
D03*
X299213Y366142D02*
D03*
Y348425D02*
D03*
X230315Y362205D02*
D03*
X242126Y336614D02*
D03*
X259842Y356299D02*
D03*
X309055Y466535D02*
D03*
X287402Y61024D02*
D03*
X561024Y326772D02*
D03*
X547244D02*
D03*
X561024Y192913D02*
D03*
X533465D02*
D03*
X513779Y96457D02*
D03*
X509842Y200787D02*
D03*
X482283Y228346D02*
D03*
X470472Y135827D02*
D03*
X505905Y244094D02*
D03*
X480315Y210630D02*
D03*
X507874Y316929D02*
D03*
X482283Y320866D02*
D03*
X507874Y224409D02*
D03*
X566929D02*
D03*
X222441Y340551D02*
D03*
X236221Y344488D02*
D03*
X275590Y210630D02*
D03*
X279528Y214567D02*
D03*
X251969Y161417D02*
D03*
X244094Y86614D02*
D03*
X255906Y61024D02*
D03*
X263779Y157480D02*
D03*
Y271654D02*
D03*
X188976Y277559D02*
D03*
X230315Y218504D02*
D03*
X194882Y155512D02*
D03*
X204724Y145669D02*
D03*
Y131890D02*
D03*
X190945Y53150D02*
D03*
Y61024D02*
D03*
X222441Y157480D02*
D03*
X194882Y127953D02*
D03*
X197441Y116142D02*
D03*
X161417Y187008D02*
D03*
X167323Y72835D02*
D03*
X90551Y88583D02*
D03*
X190945Y66929D02*
D03*
X238189Y100394D02*
D03*
X255906D02*
D03*
X165354Y267717D02*
D03*
X188976Y244094D02*
D03*
X43307Y305118D02*
D03*
X106299D02*
D03*
M02*
