G04*
G04 #@! TF.GenerationSoftware,Altium Limited,Altium Designer,20.0.13 (296)*
G04*
G04 Layer_Physical_Order=1*
G04 Layer_Color=255*
%FSLAX25Y25*%
%MOIN*%
G70*
G01*
G75*
%ADD13R,0.02165X0.02559*%
G04:AMPARAMS|DCode=14|XSize=25.59mil|YSize=21.65mil|CornerRadius=5.41mil|HoleSize=0mil|Usage=FLASHONLY|Rotation=90.000|XOffset=0mil|YOffset=0mil|HoleType=Round|Shape=RoundedRectangle|*
%AMROUNDEDRECTD14*
21,1,0.02559,0.01083,0,0,90.0*
21,1,0.01476,0.02165,0,0,90.0*
1,1,0.01083,0.00541,0.00738*
1,1,0.01083,0.00541,-0.00738*
1,1,0.01083,-0.00541,-0.00738*
1,1,0.01083,-0.00541,0.00738*
%
%ADD14ROUNDEDRECTD14*%
%ADD15R,0.01968X0.03150*%
%ADD16O,0.01968X0.03150*%
%ADD38C,0.01968*%
%ADD39O,0.04724X0.07000*%
%ADD40R,0.04724X0.07000*%
%ADD41O,0.07874X0.06299*%
%ADD42R,0.07874X0.06299*%
%ADD43O,0.06299X0.07874*%
%ADD44R,0.06299X0.07874*%
%ADD45R,0.08000X0.04724*%
%ADD46O,0.08000X0.04724*%
%ADD47C,0.09843*%
%ADD48C,0.04724*%
%ADD49O,0.04724X0.09843*%
%ADD50R,0.04724X0.09843*%
%ADD51O,0.09843X0.04724*%
%ADD52R,0.09843X0.04724*%
%ADD53O,0.03500X0.07500*%
%ADD54C,0.11811*%
%ADD55C,0.02362*%
D13*
X190313Y82294D02*
D03*
D14*
X192913Y82194D02*
D03*
X195513D02*
D03*
X198013D02*
D03*
X190213Y100394D02*
D03*
X192913D02*
D03*
X195413D02*
D03*
X198113D02*
D03*
D15*
X269328Y71894D02*
D03*
D16*
X274428Y71594D02*
D03*
X279428D02*
D03*
X284328D02*
D03*
X289328D02*
D03*
X294528D02*
D03*
X299428D02*
D03*
X269328Y100494D02*
D03*
X274428D02*
D03*
X279528Y100394D02*
D03*
X284428D02*
D03*
X289328Y100494D02*
D03*
X294428D02*
D03*
X299428Y100394D02*
D03*
D38*
X236221Y371217D02*
Y393701D01*
Y370079D02*
Y371217D01*
X234842Y372594D02*
X236221Y371217D01*
X229965Y372594D02*
X234842D01*
X228543Y374016D02*
X229965Y372594D01*
X228543Y380118D02*
X232283Y383858D01*
X228543Y374016D02*
Y380118D01*
X318898Y342520D02*
X326772Y334646D01*
X305118Y342520D02*
X318898D01*
X379921Y246063D02*
Y246063D01*
X377953Y244094D02*
X379921Y246063D01*
X423228Y253937D02*
X437008D01*
X456375Y254012D02*
X456693Y254331D01*
X448894Y254012D02*
X456375D01*
X448819Y253937D02*
X448894Y254012D01*
X322835Y363962D02*
Y364173D01*
X321562Y362689D02*
X322835Y363962D01*
X317520Y362689D02*
X321562D01*
X315067Y360236D02*
X317520Y362689D01*
X314961Y360236D02*
X315067D01*
X314961Y250000D02*
Y332677D01*
Y250000D02*
X354331Y210630D01*
Y190468D02*
X354531Y190268D01*
X354331Y190468D02*
Y210630D01*
X322835Y387795D02*
Y401575D01*
Y372673D02*
Y387795D01*
X350394D01*
X364173Y332677D02*
Y374016D01*
X350394Y387795D02*
X364173Y374016D01*
X509842Y244170D02*
X523304D01*
X505981D02*
X509842D01*
X511811Y246138D01*
Y374016D01*
X448819Y379921D02*
X484252D01*
X444882Y370705D02*
X446055Y371878D01*
Y377157D01*
X448819Y379921D01*
X395669Y283465D02*
X399806Y279328D01*
X395669Y299213D02*
X401575Y305118D01*
X395669Y283465D02*
Y299213D01*
X407396Y296534D02*
X407480Y296618D01*
X400956Y296534D02*
X407396D01*
X399698Y295276D02*
X400956Y296534D01*
X399606Y295276D02*
X399698D01*
X374016Y240158D02*
X377953Y244094D01*
X377953D01*
X366142Y240158D02*
X374016D01*
X364173Y242126D02*
X366142Y240158D01*
X364173Y242126D02*
Y250477D01*
X363973Y250677D02*
X364173Y250477D01*
X401575Y305118D02*
X407480D01*
X393701D02*
X401575D01*
X399806Y190268D02*
Y279328D01*
X431102Y362205D02*
X444882D01*
X427165Y358268D02*
X431102Y362205D01*
X399606Y93673D02*
Y108268D01*
X401468Y92520D02*
X401575D01*
X400315Y93673D02*
X401468Y92520D01*
X399606Y93673D02*
X400315D01*
X385827Y312992D02*
X393701Y305118D01*
X385827Y312992D02*
Y336614D01*
X370079Y352362D02*
Y395669D01*
Y352362D02*
X385827Y336614D01*
X444256Y370079D02*
X444882Y370705D01*
X415354Y370079D02*
X444256D01*
X411417Y374016D02*
Y397638D01*
Y374016D02*
X415354Y370079D01*
X401575Y9843D02*
X433071D01*
X311024D02*
X401575D01*
X419291Y27559D01*
Y194882D01*
X407480Y206693D02*
X419291Y194882D01*
X407480Y206693D02*
Y288618D01*
X433071Y9843D02*
X482283D01*
X444882Y21654D02*
Y354205D01*
X433071Y9843D02*
X444882Y21654D01*
X305744Y372673D02*
X322835D01*
X299213Y366142D02*
X305744Y372673D01*
X299213Y242126D02*
Y348425D01*
X259906Y356236D02*
X322772D01*
X259842Y356299D02*
X259906Y356236D01*
X293307Y236221D02*
X299213Y242126D01*
X285433Y236221D02*
X293307D01*
X283465Y238189D02*
X285433Y236221D01*
X283465Y238189D02*
Y248031D01*
X235670Y362129D02*
X236221Y361579D01*
X230390Y362129D02*
X235670D01*
X230315Y362205D02*
X230390Y362129D01*
X226378Y219567D02*
Y452756D01*
X211378Y127205D02*
Y162165D01*
X221909Y215098D02*
X226378Y219567D01*
X277082Y336614D02*
X283665Y330031D01*
X242126Y336614D02*
X277082D01*
X322772Y356236D02*
X322835Y356173D01*
X362205Y468504D02*
X370079Y460630D01*
X318898Y468504D02*
X362205D01*
X370079Y448819D02*
Y460630D01*
X322835Y454724D02*
Y464567D01*
X318898Y468504D02*
X322835Y464567D01*
X311130Y468504D02*
X318898D01*
X309055Y466535D02*
X309162D01*
X311130Y468504D01*
X279528Y61024D02*
X287402D01*
X274428Y66124D02*
Y71594D01*
Y66124D02*
X279528Y61024D01*
X399606Y492126D02*
X476378D01*
X240158D02*
X399606D01*
X411417Y450787D02*
Y480315D01*
X399606Y492126D02*
X411417Y480315D01*
X560118Y298307D02*
X566024D01*
X568898Y301181D02*
Y318898D01*
X566024Y298307D02*
X568898Y301181D01*
X561024Y326772D02*
X568898Y318898D01*
X529528Y326772D02*
X547244D01*
X523622Y320866D02*
X529528Y326772D01*
X523622Y297244D02*
Y320866D01*
X552244Y168228D02*
X557992D01*
X564961Y175197D01*
Y188976D01*
X561024Y192913D02*
X564961Y188976D01*
X523622Y153543D02*
Y183071D01*
X533465Y192913D01*
X522115Y99281D02*
X523622Y100787D01*
X522115Y92982D02*
Y99281D01*
X519685Y90551D02*
X522115Y92982D01*
X513779Y91704D02*
Y96457D01*
Y91704D02*
X514933Y90551D01*
X519685D01*
X509842Y173228D02*
Y200787D01*
X456693Y236221D02*
X464567Y228346D01*
X482283D01*
X456693Y236221D02*
Y254331D01*
X452756Y146063D02*
X454262Y144556D01*
Y138257D02*
Y144556D01*
Y138257D02*
X456693Y135827D01*
X470472D01*
X523304Y244170D02*
X523622Y244488D01*
X505905Y244094D02*
X505981Y244170D01*
X499094Y166260D02*
X502874D01*
X509842Y173228D01*
X456693Y210630D02*
X480315D01*
X452756Y206693D02*
X456693Y210630D01*
X452756Y198819D02*
Y206693D01*
X499094Y300118D02*
X504843D01*
X507874Y303150D02*
Y316929D01*
X504843Y300118D02*
X507874Y303150D01*
X460630Y320866D02*
X482283D01*
X456693Y316929D02*
X460630Y320866D01*
X456693Y307087D02*
Y316929D01*
X555118Y220472D02*
Y293307D01*
Y183102D02*
Y220472D01*
X561024Y214567D02*
X622047D01*
X555118Y220472D02*
X561024Y214567D01*
X494095Y238189D02*
Y295118D01*
Y171260D02*
Y238189D01*
X507874Y224409D01*
X567193Y224567D02*
X622047D01*
X567036Y224409D02*
X567193Y224567D01*
X566929Y224409D02*
X567036D01*
X547244Y173228D02*
Y175228D01*
X555118Y183102D01*
X537402Y492126D02*
X555118Y474409D01*
X476378Y492126D02*
X537402D01*
X555118Y303307D02*
Y474409D01*
X165354Y492126D02*
X240158D01*
X476378D02*
X494095Y474409D01*
Y305118D02*
Y474409D01*
X482283Y9843D02*
X539370D01*
X547244Y17717D02*
Y163228D01*
X539370Y9843D02*
X547244Y17717D01*
X307087Y13780D02*
X312992D01*
X293307D02*
X307087D01*
X311024Y9843D01*
X494095Y21654D02*
Y161260D01*
X482283Y9843D02*
X494095Y21654D01*
X198819Y344488D02*
Y413386D01*
Y279528D02*
Y344488D01*
X202756Y340551D02*
X222441D01*
X198819Y344488D02*
X202756Y340551D01*
X236221Y344488D02*
Y353579D01*
X152075Y478847D02*
X159449D01*
X143701D02*
X152075D01*
X165354Y492126D01*
X198819Y413386D02*
Y478346D01*
X236221Y393701D02*
X242126Y399606D01*
X255906D01*
Y452756D02*
Y476378D01*
X240158Y492126D02*
X255906Y476378D01*
X342520Y33465D02*
X350394D01*
X354331Y37402D01*
Y108268D01*
X272126Y202756D02*
Y206053D01*
X275515Y209442D01*
Y210555D01*
X275590Y210630D01*
X265748Y214567D02*
X279528D01*
X252044Y172674D02*
X252126Y172756D01*
X252044Y161493D02*
Y172674D01*
X251969Y161417D02*
X252044Y161493D01*
X252126Y202756D02*
Y210472D01*
X250000Y212598D02*
X252126Y210472D01*
X244094Y212598D02*
X250000D01*
X242126Y210630D02*
X244094Y212598D01*
X242126Y202756D02*
Y210630D01*
X241599Y172229D02*
X242126Y172756D01*
X241599Y166796D02*
Y172229D01*
X240158Y165354D02*
X241599Y166796D01*
X238189Y163386D02*
X240158Y165354D01*
Y165354D01*
X234252Y163386D02*
X238189D01*
X232126Y165512D02*
Y172756D01*
Y165512D02*
X234252Y163386D01*
X262126D02*
Y172756D01*
Y159134D02*
Y163386D01*
X244094Y86614D02*
Y145354D01*
X262126Y163386D01*
X255906Y61024D02*
X265748D01*
X269328Y64603D02*
Y71894D01*
X265748Y61024D02*
X269328Y64603D01*
X263779Y212598D02*
X265748Y214567D01*
X262126Y159134D02*
X263779Y157480D01*
X262126Y202756D02*
Y210945D01*
X263779Y212598D01*
Y271654D01*
X184134Y282402D02*
X188976Y277559D01*
X184134Y282402D02*
Y307992D01*
X230315Y216535D02*
Y218504D01*
Y216535D02*
X232126Y214724D01*
Y202756D02*
Y214724D01*
X194882Y142371D02*
X197244Y140009D01*
X194882Y142371D02*
Y155512D01*
X204724Y131890D02*
Y145669D01*
X188583Y55512D02*
X190945Y53150D01*
X188583Y70156D02*
X190313Y71887D01*
X188583Y55512D02*
Y70156D01*
X190313Y71887D02*
Y82294D01*
X190945Y61024D02*
X195513Y65592D01*
Y82194D01*
X222126Y172756D02*
X222366Y172516D01*
Y157556D02*
Y172516D01*
Y157556D02*
X222441Y157480D01*
X195079Y124809D02*
X197244Y126974D01*
X194882Y127846D02*
Y127953D01*
X195079Y114573D02*
X195413Y114238D01*
X195079Y114573D02*
Y124809D01*
X198113Y100394D02*
Y115363D01*
X197441Y116035D02*
Y116142D01*
X192913Y100394D02*
Y125878D01*
X197441Y116035D02*
X198113Y115363D01*
X197244Y126974D02*
Y140009D01*
X192913Y125878D02*
X194882Y127846D01*
X188976Y243988D02*
X190213Y242751D01*
Y100394D02*
Y242751D01*
X188976Y243988D02*
Y244094D01*
X195413Y100394D02*
Y114238D01*
X154528Y185039D02*
Y201772D01*
Y170095D02*
Y185039D01*
X156496Y187008D02*
X161417D01*
X154528Y185039D02*
X156496Y187008D01*
X153543Y99410D02*
Y118110D01*
Y80709D02*
Y99410D01*
X156496Y102362D02*
X165354D01*
X153543Y99410D02*
X156496Y102362D01*
X167323Y72835D02*
Y100394D01*
X165354Y102362D02*
X167323Y100394D01*
X198013Y24428D02*
X208661Y13780D01*
X198013Y24428D02*
Y82194D01*
X71850Y92520D02*
Y109252D01*
Y79445D02*
Y92520D01*
X75787Y88583D02*
X90551D01*
X71850Y92520D02*
X75787Y88583D01*
X192913Y69004D02*
Y82194D01*
X190945Y67036D02*
X192913Y69004D01*
X190945Y66929D02*
Y67036D01*
X179134Y23622D02*
X188976Y13780D01*
X179134Y23622D02*
Y259842D01*
X211378Y162165D02*
X212126Y162913D01*
X210630Y161417D02*
X211378Y162165D01*
X255956Y100444D02*
X269328D01*
X211378Y127205D02*
X238189Y100394D01*
X269328Y100444D02*
Y100494D01*
X255906Y100394D02*
X255956Y100444D01*
X219941Y213130D02*
X221909Y215098D01*
X212126Y205315D02*
X219941Y213130D01*
X196850Y165354D02*
Y213414D01*
X198003Y214567D01*
X218504D01*
X219941Y213130D01*
X200787Y161417D02*
X210630D01*
X196850Y165354D02*
X200787Y161417D01*
X212126Y162913D02*
Y172756D01*
X222126Y202756D02*
Y214882D01*
X221909Y215098D02*
X222126Y214882D01*
X226378Y452756D02*
Y462425D01*
X216535Y442913D02*
X226378Y452756D01*
X216535Y435039D02*
Y442913D01*
X208819Y478346D02*
X210457D01*
X226378Y462425D01*
X212126Y202756D02*
Y205315D01*
X155512Y276484D02*
Y299213D01*
Y253756D02*
Y276484D01*
X156587D02*
X165354Y267717D01*
X155512Y276484D02*
X156587D01*
X205472Y420039D02*
X216535D01*
X198819Y413386D02*
X205472Y420039D01*
X192165D02*
X198819Y413386D01*
X179134Y420039D02*
X192165D01*
X255906Y13780D02*
X293307D01*
X208661D02*
X255906D01*
X250000Y19685D02*
Y108268D01*
Y19685D02*
X255906Y13780D01*
X272126Y130394D02*
Y172756D01*
X250000Y108268D02*
X272126Y130394D01*
X96957Y478847D02*
X143701D01*
X153543Y405512D02*
Y469004D01*
X143701Y478847D02*
X153543Y469004D01*
X179134Y259842D02*
Y302992D01*
Y259842D02*
X198819Y279528D01*
X188976Y13780D02*
X208661D01*
X157480D02*
X188976D01*
X29528Y291339D02*
Y411417D01*
Y265905D02*
Y291339D01*
X43307Y305118D01*
X106299D02*
X149606D01*
X155512Y299213D01*
X153543Y354512D02*
X153724Y354331D01*
X167323D01*
X179134Y312992D02*
Y342520D01*
X167323Y354331D02*
X179134Y342520D01*
X100394Y354331D02*
X153362D01*
X88583D02*
X100394D01*
X94488Y277559D02*
Y348425D01*
X100394Y354331D01*
X153362D02*
X153543Y354512D01*
X59055Y277559D02*
Y324803D01*
X88583Y354331D01*
X159449Y478847D02*
X188819D01*
X179134Y435039D02*
Y459161D01*
X159449Y478847D02*
X179134Y459161D01*
X299428Y19900D02*
Y71594D01*
X293307Y13780D02*
X299428Y19900D01*
X86614Y13780D02*
X157480D01*
X153543Y17717D02*
Y29709D01*
Y17717D02*
X157480Y13780D01*
X153543Y169110D02*
X154528Y170095D01*
Y201772D02*
X155512Y202756D01*
X102835Y208819D02*
Y229842D01*
X94488Y238189D02*
X102835Y229842D01*
X52835Y208819D02*
Y231968D01*
X59055Y238189D01*
X72835Y163386D02*
Y198819D01*
X70866Y78461D02*
X71850Y79445D01*
Y109252D02*
X72835Y110236D01*
X70866Y29528D02*
X86614Y13780D01*
X27559Y72835D02*
X70866Y29528D01*
Y64961D01*
X27559Y263937D02*
X29528Y265905D01*
Y411417D02*
X96957Y478847D01*
X332520Y33307D02*
Y33465D01*
X312992Y13780D02*
X332520Y33307D01*
X27559Y72835D02*
Y253937D01*
D39*
X444882Y354205D02*
D03*
Y362205D02*
D03*
X236221Y353579D02*
D03*
Y361579D02*
D03*
X407480Y288618D02*
D03*
Y296618D02*
D03*
X322835Y356173D02*
D03*
Y364173D02*
D03*
D40*
X444882Y370705D02*
D03*
X236221Y370079D02*
D03*
X407480Y305118D02*
D03*
X322835Y372673D02*
D03*
D41*
X27559Y253937D02*
D03*
X622047Y214567D02*
D03*
D42*
X27559Y263937D02*
D03*
X622047Y224567D02*
D03*
D43*
X332520Y33465D02*
D03*
D44*
X342520D02*
D03*
D45*
X188819Y478847D02*
D03*
D46*
X198819Y478346D02*
D03*
X208819D02*
D03*
D47*
X94488Y277559D02*
D03*
Y238189D02*
D03*
X59055D02*
D03*
Y277559D02*
D03*
X70866Y78461D02*
D03*
Y64961D02*
D03*
X456693Y254331D02*
D03*
Y307087D02*
D03*
X523622Y244488D02*
D03*
Y297244D02*
D03*
X452756Y146063D02*
D03*
Y198819D02*
D03*
X523622Y100787D02*
D03*
Y153543D02*
D03*
X411417Y397638D02*
D03*
Y450787D02*
D03*
X255906Y399606D02*
D03*
Y452756D02*
D03*
X370079Y395669D02*
D03*
Y448819D02*
D03*
X322835Y401575D02*
D03*
Y454724D02*
D03*
X72835Y110236D02*
D03*
Y163386D02*
D03*
D48*
X179134Y435039D02*
D03*
Y420039D02*
D03*
X216535Y435039D02*
D03*
Y420039D02*
D03*
D49*
X272126Y202756D02*
D03*
X262126D02*
D03*
X252126D02*
D03*
X242126D02*
D03*
X232126D02*
D03*
X222126D02*
D03*
X212126D02*
D03*
X272126Y172756D02*
D03*
X262126D02*
D03*
X252126D02*
D03*
X242126D02*
D03*
X232126D02*
D03*
X222126D02*
D03*
D50*
X212126D02*
D03*
D51*
X102835Y208819D02*
D03*
X72835Y198819D02*
D03*
D52*
X52835Y208819D02*
D03*
D53*
X494095Y295118D02*
D03*
X499094Y300118D02*
D03*
X494095Y305118D02*
D03*
X555118Y293307D02*
D03*
X560118Y298307D02*
D03*
X555118Y303307D02*
D03*
X179134Y302992D02*
D03*
X184134Y307992D02*
D03*
X179134Y312992D02*
D03*
X494095Y161260D02*
D03*
X499094Y166260D02*
D03*
X494095Y171260D02*
D03*
X547244Y163228D02*
D03*
X552244Y168228D02*
D03*
X547244Y173228D02*
D03*
D54*
X153543Y405512D02*
D03*
Y354512D02*
D03*
X155512Y253756D02*
D03*
Y202756D02*
D03*
X153543Y169110D02*
D03*
Y118110D02*
D03*
Y80709D02*
D03*
Y29709D02*
D03*
X399806Y190268D02*
D03*
X399606Y108268D02*
D03*
X283465Y248031D02*
D03*
X283665Y330031D02*
D03*
X364173Y332677D02*
D03*
X363973Y250677D02*
D03*
X354531Y190268D02*
D03*
X354331Y108268D02*
D03*
D55*
X232283Y383858D02*
D03*
X305118Y342520D02*
D03*
X326772Y334646D02*
D03*
X379921Y246063D02*
D03*
X423228Y253937D02*
D03*
X437008D02*
D03*
X448819D02*
D03*
X314961Y360236D02*
D03*
Y332677D02*
D03*
X511811Y374016D02*
D03*
X484252Y379921D02*
D03*
X399606Y295276D02*
D03*
X427165Y358268D02*
D03*
X401575Y92520D02*
D03*
X299213Y366142D02*
D03*
Y348425D02*
D03*
X230315Y362205D02*
D03*
X242126Y336614D02*
D03*
X259842Y356299D02*
D03*
X309055Y466535D02*
D03*
X287402Y61024D02*
D03*
X561024Y326772D02*
D03*
X547244D02*
D03*
X561024Y192913D02*
D03*
X533465D02*
D03*
X513779Y96457D02*
D03*
X509842Y200787D02*
D03*
X482283Y228346D02*
D03*
X470472Y135827D02*
D03*
X505905Y244094D02*
D03*
X480315Y210630D02*
D03*
X507874Y316929D02*
D03*
X482283Y320866D02*
D03*
X507874Y224409D02*
D03*
X566929D02*
D03*
X222441Y340551D02*
D03*
X236221Y344488D02*
D03*
X275590Y210630D02*
D03*
X279528Y214567D02*
D03*
X251969Y161417D02*
D03*
X244094Y86614D02*
D03*
X255906Y61024D02*
D03*
X263779Y157480D02*
D03*
Y271654D02*
D03*
X188976Y277559D02*
D03*
X230315Y218504D02*
D03*
X194882Y155512D02*
D03*
X204724Y145669D02*
D03*
Y131890D02*
D03*
X190945Y53150D02*
D03*
Y61024D02*
D03*
X222441Y157480D02*
D03*
X194882Y127953D02*
D03*
X197441Y116142D02*
D03*
X161417Y187008D02*
D03*
X167323Y72835D02*
D03*
X90551Y88583D02*
D03*
X190945Y66929D02*
D03*
X238189Y100394D02*
D03*
X255906D02*
D03*
X165354Y267717D02*
D03*
X188976Y244094D02*
D03*
X43307Y305118D02*
D03*
X106299D02*
D03*
M02*
